<svg xmlns="http://www.w3.org/2000/svg" width="13.339" height="20" viewBox="0 0 13.339 20">
  <path id="Icon_ionic-ios-arrow-round-down" data-name="Icon ionic-ios-arrow-round-down" d="M24.331,20.629a.908.908,0,0,0-1.278-.007l-4.231,4.217V8.771a.9.9,0,0,0-1.806,0V24.839l-4.231-4.224a.914.914,0,0,0-1.278.007.9.9,0,0,0,.007,1.271l5.766,5.724h0a1.014,1.014,0,0,0,.285.188.862.862,0,0,0,.347.069.905.905,0,0,0,.632-.257l5.766-5.724A.885.885,0,0,0,24.331,20.629Z" transform="translate(-11.247 -7.875)" fill="#ff9100"/>
</svg>
