<svg xmlns="http://www.w3.org/2000/svg" width="13.339" height="20" viewBox="0 0 13.339 20">
  <path id="Icon_ionic-ios-arrow-round-down" data-name="Icon ionic-ios-arrow-round-down" d="M13.084,12.754a.908.908,0,0,0-1.278-.007L7.575,16.964V.9A.9.9,0,0,0,5.769.9V16.964L1.538,12.741a.914.914,0,0,0-1.278.007.9.9,0,0,0,.007,1.271l5.766,5.724h0a1.014,1.014,0,0,0,.285.188A.862.862,0,0,0,6.665,20a.905.905,0,0,0,.632-.257l5.766-5.724A.885.885,0,0,0,13.084,12.754Z" transform="translate(13.339 20) rotate(180)" fill="#ff9100"/>
</svg>
