<svg xmlns="http://www.w3.org/2000/svg" width="49.305" height="51.102" viewBox="0 0 49.305 51.102">
  <g id="Icon_feather-cloud-snow" data-name="Icon feather-cloud-snow" transform="translate(2.022 2.002)">
    <path id="Tracé_1" data-name="Tracé 1" d="M40.6,34.486a10.063,10.063,0,0,0,5.944-11.321,10.245,10.245,0,0,0-10.059-8.04H33.89A16.552,16.552,0,0,0,2.577,13.394a15.988,15.988,0,0,0,5.1,18.4" transform="translate(-1.49 -3)" fill="none" stroke="#000" stroke-linecap="round" stroke-linejoin="round" stroke-width="4"/>
    <path id="Tracé_2" data-name="Tracé 2" d="M12,24h0" transform="translate(2.416 8.97)" fill="none" stroke="#000" stroke-linecap="round" stroke-linejoin="round" stroke-width="4"/>
    <path id="Tracé_3" data-name="Tracé 3" d="M12,30h0" transform="translate(2.416 10.035)" fill="none" stroke="#000" stroke-linecap="round" stroke-linejoin="round" stroke-width="4"/>
    <path id="Tracé_4" data-name="Tracé 4" d="M18,27h0" transform="translate(4.647 10.68)" fill="none" stroke="#000" stroke-linecap="round" stroke-linejoin="round" stroke-width="4"/>
    <path id="Tracé_5" data-name="Tracé 5" d="M18,33h0" transform="translate(4.647 14.1)" fill="none" stroke="#000" stroke-linecap="round" stroke-linejoin="round" stroke-width="4"/>
    <path id="Tracé_6" data-name="Tracé 6" d="M24,24h0" transform="translate(6.877 8.97)" fill="none" stroke="#000" stroke-linecap="round" stroke-linejoin="round" stroke-width="4"/>
    <path id="Tracé_7" data-name="Tracé 7" d="M24,30h0" transform="translate(6.877 10.035)" fill="none" stroke="#000" stroke-linecap="round" stroke-linejoin="round" stroke-width="4"/>
  </g>
</svg>
