<svg xmlns="http://www.w3.org/2000/svg" width="36.002" height="31.496" viewBox="0 0 36.002 31.496">
  <path id="Icon_awesome-wind" data-name="Icon awesome-wind" d="M11.018,18H1.125A1.128,1.128,0,0,0,0,19.125v2.25A1.128,1.128,0,0,0,1.125,22.5h10a2.349,2.349,0,0,1,2.348,1.87,2.253,2.253,0,0,1-4.359,1.09,1.111,1.111,0,0,0-1.069-.71H5.738A1.119,1.119,0,0,0,4.62,26.044a6.75,6.75,0,0,0,13.317-2.18A6.9,6.9,0,0,0,11.018,18ZM1.125,15.75H24.75a6.752,6.752,0,1,0-6.623-8.037A1.108,1.108,0,0,0,19.237,9h2.306a1.1,1.1,0,0,0,1.069-.71,2.253,2.253,0,0,1,4.359,1.09,2.343,2.343,0,0,1-2.348,1.87H1.125A1.128,1.128,0,0,0,0,12.375v2.25A1.128,1.128,0,0,0,1.125,15.75Zm27,2.25H17.135a8.888,8.888,0,0,1,2.8,4.5h8.191A3.375,3.375,0,1,1,25.2,27.534,1.164,1.164,0,0,0,24.18,27H21.8a1.127,1.127,0,0,0-1.076,1.484A7.866,7.866,0,1,0,28.125,18Z" transform="translate(0 -2.253)"/>
</svg>
