<svg xmlns="http://www.w3.org/2000/svg" width="243.97" height="265" viewBox="0 0 243.97 265">
  <defs>
    <style>
      .cls-1 {
        fill: #fff;
        fill-rule: evenodd;
      }
    </style>
  </defs>
  <path id="Clear_night_" data-name="Clear (night)" class="cls-1" d="M2973.97,532.021c-73.36,0-133.04-59.439-133.04-132.5s59.68-132.5,133.04-132.5c3.55,0,7.2.147,10.82,0.438a11.034,11.034,0,0,1,8.18,17.358,110.072,110.072,0,0,0,9.43,138.461,110.645,110.645,0,0,0,72.29,35.011,11.033,11.033,0,0,1,8.18,17.357A133.45,133.45,0,0,1,2973.97,532.021Zm-9.53-242.512c-56.69,4.832-101.34,52.328-101.34,110.012,0,60.884,49.74,110.417,110.87,110.417a111.286,111.286,0,0,0,78.84-32.8,132.7,132.7,0,0,1-102.12-128.9A131.3,131.3,0,0,1,2964.44,289.509Z" transform="translate(-2840.94 -267.031)"/>
</svg>
