<?xml version="1.0" encoding="utf-8"?>
<!-- Generator: Adobe Illustrator 24.0.2, SVG Export Plug-In . SVG Version: 6.00 Build 0)  -->
<svg version="1.1" id="Calque_1" xmlns="http://www.w3.org/2000/svg" xmlns:xlink="http://www.w3.org/1999/xlink" x="0px" y="0px"
	 viewBox="0 0 265 160" style="enable-background:new 0 0 265 160;" xml:space="preserve">
<style type="text/css">
	.st0{fill-rule:evenodd;clip-rule:evenodd;}
</style>
<path id="Cloudy" class="st0" d="M48.6,160c-26.9-0.1-48.7-22-48.6-49c0.1-22.7,15.8-42.3,37.9-47.4c-0.4-2-0.5-4-0.5-6
	c0-18.4,14.9-33.2,33.3-33.2c6,0,11.8,1.6,16.9,4.7c24.7-32.5,71.2-38.8,103.7-14.1c15.2,11.6,25.4,28.6,28.3,47.5
	c26.9,1.8,47.2,25.1,45.4,51.9c-1.7,25.5-22.7,45.3-48.2,45.5L48.6,160z M70.5,38.5c-10.6,0-19.2,8.6-19.3,19.2c0,3,0.7,6,2,8.6
	c1.7,3.4,0.3,7.6-3.1,9.4c-0.9,0.4-1.9,0.7-2.9,0.7c-19.2,0.8-34.2,17-33.4,36.3c0.8,18.6,16.1,33.3,34.7,33.4h167.9
	c19.2-0.2,34.7-16,34.5-35.2c-0.2-19.1-15.8-34.5-34.9-34.5c-0.7,0-1.5,0-2.4,0.1c-3.8,0.3-7.2-2.6-7.4-6.4c0,0,0,0,0-0.1
	c-2.2-33.1-30.8-58.1-63.9-55.9c-19.5,1.3-37.2,12-47.4,28.8c-2,3.3-6.3,4.3-9.6,2.3c-0.5-0.3-0.9-0.6-1.3-1
	C80.6,40.5,75.7,38.5,70.5,38.5z"/>
</svg>
