<svg xmlns="http://www.w3.org/2000/svg" width="265.03" height="218" viewBox="0 0 265.03 218">
  <defs>
    <style>
      .cls-1 {
        fill: #fff;
        fill-rule: evenodd;
      }
    </style>
  </defs>
  <path id="Foggy" class="cls-1" d="M3047.52,449.133l-7.38,0h0l-160.61-.06a48.45,48.45,0,0,1-10.76-95.728,32.477,32.477,0,0,1-.54-5.933,33.262,33.262,0,0,1,50.2-28.372,73.524,73.524,0,0,1,58.91-29.049c36.67,0,67.59,26.849,73.07,62.233a48.716,48.716,0,0,1,45.52,48.414c0,26.481-21.68,48.237-48.34,48.5h-0.07Zm-7.38-13.869,7.35,0a34.646,34.646,0,1,0-.39-69.29c-0.82,0-1.7.053-2.45,0.1a6.991,6.991,0,0,1-5.08-1.7,6.9,6.9,0,0,1-2.36-4.774c-2.02-31.265-28.32-55.756-59.87-55.756A59.689,59.689,0,0,0,2926,332.617a7,7,0,0,1-10.91,1.294,19.28,19.28,0,0,0-32.91,13.5,18.909,18.909,0,0,0,2.04,8.579,6.867,6.867,0,0,1-.22,6.635,6.971,6.971,0,0,1-5.73,3.407,34.6,34.6,0,0,0,1.26,69.174h7.17ZM3031.51,508h-0.01l-39.31-.017a6.925,6.925,0,1,1,0-13.849h0.01l39.31,0.022A6.922,6.922,0,1,1,3031.51,508Zm-66.52,0h0l-69.34-.017a6.925,6.925,0,1,1,0-13.849h0.01l69.33,0.022A6.922,6.922,0,1,1,2964.99,508Zm82.73-29.118h0l-90.34-.017a6.925,6.925,0,1,1,0-13.849h0l90.34,0.022A6.922,6.922,0,1,1,3047.72,478.881Zm-116.47,0h0l-49.9-.017a6.925,6.925,0,1,1,.01-13.849h0l49.9,0.022A6.922,6.922,0,1,1,2931.25,478.881Z" transform="translate(-2830.91 -290)"/>
</svg>
