<?xml version="1.0" encoding="utf-8"?>
<!-- Generator: Adobe Illustrator 24.0.2, SVG Export Plug-In . SVG Version: 6.00 Build 0)  -->
<svg version="1.1" id="Calque_1" xmlns="http://www.w3.org/2000/svg" xmlns:xlink="http://www.w3.org/1999/xlink" x="0px" y="0px"
	 viewBox="0 0 265 218" style="enable-background:new 0 0 265 218;" xml:space="preserve">
<style type="text/css">
	.st0{fill-rule:evenodd;clip-rule:evenodd;}
</style>
<path id="Foggy" class="st0" d="M216.6,159.1h-7.4l0,0l-160.6-0.1C21.9,159.2,0.1,137.6,0,110.8c-0.1-22.7,15.7-42.5,37.9-47.4
	c-0.4-2-0.5-3.9-0.5-5.9c0.1-18.4,15.1-33.1,33.5-33c5.9,0,11.6,1.6,16.7,4.6c14-18.4,35.8-29.2,58.9-29c36.7,0,67.6,26.8,73.1,62.2
	C245,63.9,264.9,85,265,110.6C265,137.1,243.3,158.9,216.6,159.1L216.6,159.1L216.6,159.1z M209.2,145.3h7.4
	c19.1,0,34.6-15.5,34.6-34.7c0-19.1-15.5-34.6-34.7-34.6c-0.1,0-0.2,0-0.4,0c-0.8,0-1.7,0.1-2.4,0.1c-1.9,0.1-3.7-0.5-5.1-1.7
	c-1.4-1.2-2.2-2.9-2.4-4.8c-2-31.3-28.3-55.8-59.9-55.8c-21-0.1-40.5,10.8-51.3,28.8c-2,3.3-6.3,4.3-9.6,2.3c-0.5-0.3-0.9-0.6-1.3-1
	c-7.5-7.5-19.7-7.5-27.3,0c-3.6,3.6-5.6,8.4-5.6,13.5c0,3,0.7,5.9,2,8.6c1.1,2.1,1,4.6-0.2,6.6c-1.2,2-3.4,3.3-5.7,3.4
	c-19.1,0.7-34,16.8-33.2,35.9c0.7,18.5,15.9,33.2,34.5,33.3h7.2L209.2,145.3z M200.6,218L200.6,218l-39.3,0c-3.8,0-7-3-7-6.8
	c0-3.8,3-7,6.8-7c0.1,0,0.1,0,0.2,0h0l39.3,0c3.8,0,6.9,3.1,6.9,6.9C207.5,214.9,204.4,218,200.6,218C200.6,218,200.6,218,200.6,218
	z M134.1,218L134.1,218l-69.3,0c-3.8,0-7-3-7-6.8c0-3.8,3-7,6.8-7c0.1,0,0.1,0,0.2,0h0l69.3,0c3.8,0,6.9,3.1,6.9,6.9
	C141,214.9,137.9,218,134.1,218C134.1,218,134.1,218,134.1,218z M216.8,188.9L216.8,188.9l-90.3,0c-3.8,0-7-3-7-6.8c0-3.8,3-7,6.8-7
	c0.1,0,0.1,0,0.2,0l0,0l90.3,0c3.8,0,7,3,7,6.8c0,3.8-3,7-6.8,7C216.9,188.9,216.9,188.9,216.8,188.9L216.8,188.9z M100.3,188.9
	L100.3,188.9l-49.9,0c-3.8,0-7-3-7-6.8c0-3.8,3-7,6.8-7c0.1,0,0.1,0,0.2,0l0,0l49.9,0c3.8,0,7,3,7,6.8c0,3.8-3,7-6.8,7
	C100.4,188.9,100.4,188.9,100.3,188.9L100.3,188.9z"/>
</svg>
