<svg xmlns="http://www.w3.org/2000/svg" width="249.62" height="203.187" viewBox="0 0 249.62 203.187">
  <defs>
    <style>
      .cls-1 {
        fill: #fff;
        fill-rule: evenodd;
      }
    </style>
  </defs>
  <path id="Partly_cloudy_night_" data-name="Partly cloudy (night)" class="cls-1" d="M2877.65,501.127a39.314,39.314,0,0,1-8.68-77.636,26.44,26.44,0,0,1-.43-4.805,26.814,26.814,0,0,1,40.5-22.977A59.711,59.711,0,0,1,3015.52,422.6a39.307,39.307,0,0,1-2.28,78.528Zm17.68-97.944a15.538,15.538,0,0,0-15.54,15.5,15.357,15.357,0,0,0,1.65,6.947,5.615,5.615,0,0,1-4.8,8.133,28.077,28.077,0,0,0,1.05,56.131l135.5,0a28.08,28.08,0,0,0-.34-56.158c-0.58,0-1.21.025-1.98,0.078a5.621,5.621,0,0,1-6-5.242,48.44,48.44,0,0,0-89.73-21.865,5.632,5.632,0,0,1-8.8,1.048A15.443,15.443,0,0,0,2895.33,403.183Zm150.72,27.853a5.615,5.615,0,0,1-1.29-11.081,56.138,56.138,0,0,0,27.06-15.182,67.365,67.365,0,0,1-44.86-95.413,56.224,56.224,0,0,0-51.41,54.359,5.627,5.627,0,0,1-11.25-.31,67.457,67.457,0,0,1,67.5-65.483c1.8,0,3.65.075,5.49,0.222a5.614,5.614,0,0,1,4.15,8.827,56.153,56.153,0,0,0,41.48,88.212,5.614,5.614,0,0,1,4.15,8.826,67.485,67.485,0,0,1-39.72,26.871A5.664,5.664,0,0,1,3046.05,431.036Z" transform="translate(-2838.44 -297.938)"/>
</svg>
