<svg xmlns="http://www.w3.org/2000/svg" width="265" height="241" viewBox="0 0 265 241">
  <defs>
    <style>
      .cls-1 {
        fill: #fff;
        fill-rule: evenodd;
      }
    </style>
  </defs>
  <path id="Partly_cloudy_day_" data-name="Partly cloudy (day)" class="cls-1" d="M3019.14,433.925a5.737,5.737,0,0,1-3.63-10.193,46,46,0,1,0-74.87-40.816,5.765,5.765,0,0,1-11.46-1.273,57.629,57.629,0,1,1,93.59,51A5.751,5.751,0,0,1,3019.14,433.925Zm-32.73-112.471a5.752,5.752,0,0,1-5.77-5.738V284.729a5.765,5.765,0,0,1,11.53,0v30.987A5.75,5.75,0,0,1,2986.41,321.454Zm-72.63,72.3h-31.13a5.739,5.739,0,1,1,0-11.477h31.13A5.739,5.739,0,1,1,2913.78,393.757Zm176.38,0h-31.13a5.739,5.739,0,1,1,0-11.477h31.13A5.739,5.739,0,1,1,3090.16,393.757Zm-52.72-50.808a5.783,5.783,0,0,1-4.08-1.681,5.722,5.722,0,0,1,0-8.115l22.33-22.229a5.78,5.78,0,0,1,8.15,0,5.7,5.7,0,0,1,0,8.115l-22.32,22.229A5.766,5.766,0,0,1,3037.44,342.949Zm-102.07,0a5.766,5.766,0,0,1-4.08-1.681l-22.32-22.229a5.7,5.7,0,0,1,0-8.115,5.78,5.78,0,0,1,8.15,0l22.33,22.229a5.722,5.722,0,0,1,0,8.115A5.783,5.783,0,0,1,2935.37,342.949Zm124.4,123.844a5.769,5.769,0,0,1-4.08-1.68l-22.33-22.229a5.722,5.722,0,0,1,0-8.115,5.792,5.792,0,0,1,8.16,0L3063.84,457A5.738,5.738,0,0,1,3059.77,466.793ZM2871.11,520a40.168,40.168,0,0,1-8.9-79.343,26.7,26.7,0,0,1-.44-4.911,27.484,27.484,0,0,1,41.49-23.483,61.209,61.209,0,0,1,109.07,27.479A40.168,40.168,0,0,1,3010,520Zm18.1-100.1a15.89,15.89,0,0,0-15.91,15.844,15.609,15.609,0,0,0,1.68,7.1,5.734,5.734,0,0,1-4.92,8.312,28.693,28.693,0,0,0,1.08,57.366l138.8,0a28.7,28.7,0,0,0-.34-57.394c-0.6,0-1.24.026-2.03,0.08a5.807,5.807,0,0,1-4.2-1.405,5.749,5.749,0,0,1-1.95-3.952,49.643,49.643,0,0,0-91.91-22.346,5.784,5.784,0,0,1-9.02,1.07A15.827,15.827,0,0,0,2889.21,419.9Z" transform="translate(-2830.91 -279)"/>
</svg>
