<svg xmlns="http://www.w3.org/2000/svg" width="265.03" height="233.969" viewBox="0 0 265.03 233.969">
  <defs>
    <style>
      .cls-1 {
        fill: #fff;
        fill-rule: evenodd;
      }
    </style>
  </defs>
  <path id="Rain" class="cls-1" d="M3047.52,442.666l-7.38,0h0l-160.61-.06a48.623,48.623,0,0,1-10.76-96.039,32.684,32.684,0,0,1-.54-5.952,33.242,33.242,0,0,1,50.2-28.464,74.025,74.025,0,0,1,131.98,33.291,48.664,48.664,0,0,1-2.82,97.226h-0.07Zm-7.38-13.914,7.35,0a34.759,34.759,0,0,0-.39-69.516c-0.82,0-1.7.054-2.45,0.106a6.955,6.955,0,0,1-7.44-6.494A60.042,60.042,0,0,0,2926,325.772a6.987,6.987,0,0,1-10.91,1.3,19.235,19.235,0,0,0-30.87,22.149,6.952,6.952,0,0,1-5.95,10.074,34.712,34.712,0,0,0,1.26,69.4h7.17Zm-101.16,88.231a6.958,6.958,0,0,1-4.93-11.876l17.47-17.4a6.965,6.965,0,0,1,9.86,9.841l-17.47,17.4A6.953,6.953,0,0,1,2938.98,516.983Zm-60.67-39.646a6.952,6.952,0,0,1-4.93-11.875l11.01-10.973a6.965,6.965,0,0,1,9.86,9.84L2883.23,475.3A6.943,6.943,0,0,1,2878.31,477.337Zm96.94,0a6.952,6.952,0,0,1-4.93-11.875l11.01-10.973a6.965,6.965,0,1,1,9.86,9.84L2980.18,475.3A6.966,6.966,0,0,1,2975.25,477.337Zm31.38,17.5a6.958,6.958,0,0,1-4.93-11.876l28.59-28.475a6.966,6.966,0,1,1,9.86,9.842l-28.59,28.475A6.952,6.952,0,0,1,3006.63,494.839Zm-105.31,7.651a6.958,6.958,0,0,1-4.93-11.876l36.26-36.125a6.965,6.965,0,1,1,9.86,9.84l-36.26,36.126A6.966,6.966,0,0,1,2901.32,502.49Z" transform="translate(-2830.91 -283)"/>
</svg>
