<svg xmlns="http://www.w3.org/2000/svg" width="265.03" height="241" viewBox="0 0 265.03 241">
  <defs>
    <style>
      .cls-1 {
        fill: #fff;
        fill-rule: evenodd;
      }
    </style>
  </defs>
  <path id="Rain_and_snow" data-name="Rain and snow" class="cls-1" d="M2910.86,462.987a6.935,6.935,0,0,1-3.51-12.935l42.17-24.419a6.946,6.946,0,1,1,7.01,11.993l-42.17,24.419A6.993,6.993,0,0,1,2910.86,462.987Zm42.51-.627a6.986,6.986,0,0,1-3.32-.842l-42.88-23.164a6.945,6.945,0,1,1,6.65-12.194l42.88,23.164A6.935,6.935,0,0,1,2953.37,462.36Zm-21.44,12.6h-0.01a7.077,7.077,0,0,1-6.96-7.1l0.02-47.727a6.936,6.936,0,0,1,6.97-6.916h0a6.875,6.875,0,0,1,6.97,6.844l-0.02,47.854A7.058,7.058,0,0,1,2931.93,474.964Zm45.14-35.564a6.934,6.934,0,0,1-3.51-12.935l42.17-24.419a6.988,6.988,0,0,1,9.53,2.509,6.913,6.913,0,0,1-2.52,9.484l-42.17,24.419A6.956,6.956,0,0,1,2977.07,439.4Zm42.51-.627a6.919,6.919,0,0,1-3.31-.842l-42.88-23.164a6.923,6.923,0,0,1-2.81-9.406,7,7,0,0,1,9.46-2.788l42.88,23.164A6.935,6.935,0,0,1,3019.58,438.773Zm-21.44,12.6h-0.01a7.091,7.091,0,0,1-6.96-7.1l0.02-47.727a6.943,6.943,0,0,1,6.97-6.916h0.01a6.866,6.866,0,0,1,6.96,6.844l-0.02,47.854A7.045,7.045,0,0,1,2998.14,451.378Zm-78.05,68.637a6.935,6.935,0,0,1-4.92-11.845l17.45-17.355a7,7,0,0,1,9.86,0,6.917,6.917,0,0,1-.01,9.81l-17.45,17.355A6.978,6.978,0,0,1,2920.09,520.015Zm-34.15-22.893a6.94,6.94,0,0,1-4.93-11.845l11.01-10.945a7,7,0,0,1,9.86,0,6.909,6.909,0,0,1-.01,9.811l-11,10.944A6.978,6.978,0,0,1,2885.94,497.122Zm80.15-10.406a6.935,6.935,0,0,1-4.92-11.845l11-10.945a7,7,0,0,1,9.86,0,6.918,6.918,0,0,1,0,9.811l-11.01,10.944A6.978,6.978,0,0,1,2966.09,486.716Zm28.58,12.487a6.94,6.94,0,0,1-4.93-11.845l36.24-36.032a7,7,0,0,1,9.86,0,6.917,6.917,0,0,1-.01,9.81l-36.24,36.032A6.955,6.955,0,0,1,2994.67,499.2Zm53.05-60.943-7.03,0a6.937,6.937,0,1,1,.01-13.874h0l6.99,0a34.592,34.592,0,0,0,34.3-34.653,34.848,34.848,0,0,0-34.94-34.681c-0.88,0-1.85.059-2.5,0.1a6.964,6.964,0,0,1-7.44-6.476c-2.01-31.285-28.3-55.791-59.85-55.791a59.63,59.63,0,0,0-51.31,28.782,6.989,6.989,0,0,1-10.9,1.295,19.27,19.27,0,0,0-32.9,13.506,18.914,18.914,0,0,0,2.04,8.584,6.935,6.935,0,0,1-5.95,10.049,34.62,34.62,0,0,0,1.26,69.218h8.56a6.938,6.938,0,1,1,0,13.875h-8.56a48.487,48.487,0,0,1-10.76-95.789,33.22,33.22,0,0,1,49.65-34.327,74.043,74.043,0,0,1,131.92,33.2,48.759,48.759,0,0,1,45.62,48.449,48.489,48.489,0,0,1-48.14,48.527h-0.07Z" transform="translate(-2830.91 -279)"/>
</svg>
