<svg xmlns="http://www.w3.org/2000/svg" width="233" height="265" viewBox="0 0 233 265">
  <defs>
    <style>
      .cls-1 {
        fill: #fff;
        fill-rule: evenodd;
      }
    </style>
  </defs>
  <path id="Rain_mix_day_" data-name="Rain mix (day)" class="cls-1" d="M3016.04,397.61a5.334,5.334,0,0,1-3.67-9.205,40.084,40.084,0,0,0,12.62-29.355,40.473,40.473,0,0,0-80.29-7.241,5.335,5.335,0,1,1-10.5-1.9,51.145,51.145,0,1,1,85.52,46.232A5.35,5.35,0,0,1,3016.04,397.61Zm-47.33-94.156a5.331,5.331,0,0,1-5.21-4.2l-5.63-25.786a5.338,5.338,0,0,1,10.43-2.274l5.62,25.786A5.336,5.336,0,0,1,2968.71,303.454Zm78.44,49.853a5.335,5.335,0,0,1-1.13-10.548l27.44-5.985a5.334,5.334,0,1,1,2.27,10.424l-27.44,5.985A5.332,5.332,0,0,1,3047.15,353.307Zm-28.72-40.851a5.337,5.337,0,0,1-4.49-8.217L3029,280.784a5.335,5.335,0,0,1,8.98,5.763L3022.92,310A5.333,5.333,0,0,1,3018.43,312.456Zm-88.06,19.2a5.3,5.3,0,0,1-2.88-.846l-23.46-15.054a5.334,5.334,0,1,1,5.76-8.979l23.47,15.054A5.338,5.338,0,0,1,2930.37,331.659Zm130.18,83.991a5.36,5.36,0,0,1-2.88-.845l-23.46-15.054a5.337,5.337,0,1,1,5.77-8.98l23.46,15.054A5.335,5.335,0,0,1,3060.55,415.65Zm-177.89,60.61a35.875,35.875,0,0,1-8.14-70.78,25.025,25.025,0,0,1-.35-4.166,24.5,24.5,0,0,1,36.82-21.144,54.227,54.227,0,0,1,96.59,24.455,35.865,35.865,0,0,1-2.27,71.632Zm15.99-88.745a13.815,13.815,0,0,0-13.8,13.8,13.659,13.659,0,0,0,1.46,6.184,5.334,5.334,0,0,1-4.56,7.727,25.194,25.194,0,0,0,.95,50.365l122.56,0a25.2,25.2,0,0,0-.31-50.389c-0.52,0-1.08.022-1.77,0.069a5.348,5.348,0,0,1-5.7-4.98,43.54,43.54,0,0,0-80.69-19.7,5.341,5.341,0,0,1-8.35,1A13.716,13.716,0,0,0,2898.65,387.515ZM2929.48,532a5.337,5.337,0,0,1-3.77-9.109l12.75-12.727a5.334,5.334,0,1,1,7.54,7.548l-12.74,12.727A5.343,5.343,0,0,1,2929.48,532Zm-44.28-29a5.337,5.337,0,0,1-3.77-9.109l8.04-8.026a5.335,5.335,0,1,1,7.54,7.549l-8.03,8.026A5.329,5.329,0,0,1,2885.2,503Zm70.75,0a5.337,5.337,0,0,1-3.77-9.109l8.04-8.026a5.334,5.334,0,0,1,7.54,7.548l-8.04,8.026A5.3,5.3,0,0,1,2955.95,503Zm22.9,12.8a5.337,5.337,0,0,1-3.77-9.109l20.87-20.828a5.335,5.335,0,0,1,7.54,7.549l-20.86,20.828A5.346,5.346,0,0,1,2978.85,515.8ZM2902,521.4a5.337,5.337,0,0,1-3.77-9.109l26.46-26.424a5.334,5.334,0,1,1,7.54,7.548l-26.46,26.424A5.3,5.3,0,0,1,2902,521.4Z" transform="translate(-2846.94 -267)"/>
</svg>
