<svg xmlns="http://www.w3.org/2000/svg" width="248.97" height="265" viewBox="0 0 248.97 265">
  <defs>
    <style>
      .cls-1 {
        fill: #fff;
        fill-rule: evenodd;
      }
    </style>
  </defs>
  <path id="Rain_mix_day_" data-name="Rain mix (day)" class="cls-1" d="M2878.39,469.4a39.444,39.444,0,0,1-9.18-77.806,26.752,26.752,0,0,1-.36-4.4,27.132,27.132,0,0,1,40.59-23.408,59.852,59.852,0,0,1,106.33,26.832,39.442,39.442,0,0,1-2.68,78.777Zm17.56-97.091A14.931,14.931,0,0,0,2881,387.191a14.7,14.7,0,0,0,1.58,6.671,6.012,6.012,0,0,1-.19,5.787,6.079,6.079,0,0,1-4.99,2.971,27.35,27.35,0,0,0,1.03,54.681l134.6,0a27.354,27.354,0,0,0-.33-54.707c-0.57,0-1.18.024-1.94,0.076a6.061,6.061,0,0,1-6.48-5.645,47.659,47.659,0,0,0-88.24-21.456,6.08,6.08,0,0,1-9.49,1.128A14.9,14.9,0,0,0,2895.95,372.3Zm153.8,26.505a6.045,6.045,0,0,1-1.79-11.824,55.723,55.723,0,0,0,22.36-13.326,67.368,67.368,0,0,1-51.02-65.237,66.723,66.723,0,0,1,6.6-29.046,55.319,55.319,0,0,0-49.64,50.716,6.072,6.072,0,0,1-12.11-.9A67.454,67.454,0,0,1,3031.52,267c1.81,0,3.66.075,5.5,0.223a6.052,6.052,0,0,1,4.48,9.5,55.008,55.008,0,0,0,4.71,69.193,55.3,55.3,0,0,0,36.13,17.495,6.043,6.043,0,0,1,4.48,9.505,67.966,67.966,0,0,1-35.26,25.614A6.139,6.139,0,0,1,3049.75,398.809ZM2933.17,531.988a6.049,6.049,0,0,1-4.3-10.325l14-13.924a6.094,6.094,0,0,1,8.59,0,6.032,6.032,0,0,1,0,8.552l-14,13.924A6.077,6.077,0,0,1,2933.17,531.988Zm-48.64-31.726a6.049,6.049,0,0,1-4.29-10.325l8.83-8.781a6.093,6.093,0,0,1,8.59,0,6.023,6.023,0,0,1-.01,8.552l-8.82,8.78A6.079,6.079,0,0,1,2884.53,500.262Zm77.7,0a6.049,6.049,0,0,1-4.29-10.325l8.83-8.78a6.093,6.093,0,0,1,8.59,0,6.031,6.031,0,0,1-.01,8.551l-8.83,8.781A6.043,6.043,0,0,1,2962.23,500.262Zm25.16,14.006a6.045,6.045,0,0,1-4.29-10.325l22.91-22.787a6.092,6.092,0,0,1,8.59.006,6.022,6.022,0,0,1-.01,8.551L2991.68,512.5A6.073,6.073,0,0,1,2987.39,514.268Zm-84.41,6.123a6.045,6.045,0,0,1-4.29-10.325l29.06-28.909a6.093,6.093,0,0,1,8.59,0,6.031,6.031,0,0,1,0,8.551l-29.07,28.91A6.06,6.06,0,0,1,2902.98,520.391Z" transform="translate(-2838.94 -267)"/>
</svg>
