<?xml version="1.0" encoding="utf-8"?>
<!-- Generator: Adobe Illustrator 24.0.2, SVG Export Plug-In . SVG Version: 6.00 Build 0)  -->
<svg version="1.1" id="Calque_1" xmlns="http://www.w3.org/2000/svg" xmlns:xlink="http://www.w3.org/1999/xlink" x="0px" y="0px"
	 viewBox="0 0 265 234" style="enable-background:new 0 0 265 234;" xml:space="preserve">
<style type="text/css">
	.st0{fill-rule:evenodd;clip-rule:evenodd;}
</style>
<path id="Rain" class="st0" d="M216.6,159.7h-7.4l0,0l-160.6-0.1C21.8,159.6,0,137.8,0,111c0-22.7,15.7-42.4,37.9-47.4
	c-0.4-2-0.5-4-0.5-6c0.1-18.4,15-33.2,33.4-33.1c5.9,0,11.7,1.6,16.8,4.7c24.8-32.5,71.2-38.8,103.7-14
	c15.1,11.5,25.3,28.5,28.2,47.3c26.8,1.7,47.2,24.9,45.4,51.7C263.3,139.6,242.2,159.5,216.6,159.7L216.6,159.7L216.6,159.7z
	 M209.2,145.8h7.4c19.2-0.2,34.6-15.9,34.4-35.1c-0.2-19.1-15.7-34.4-34.8-34.4c-0.8,0-1.7,0.1-2.4,0.1c-3.8,0.3-7.2-2.6-7.4-6.4
	c0,0,0,0,0-0.1c-2.3-33.1-30.9-58.1-64-55.8c-19.5,1.3-37.1,12-47.2,28.7c-2,3.3-6.3,4.3-9.6,2.3c-0.5-0.3-0.9-0.6-1.3-1
	c-7.5-7.6-19.6-7.6-27.2-0.2c-5.9,5.9-7.4,14.9-3.7,22.3c1.7,3.4,0.3,7.6-3.1,9.3c-0.9,0.4-1.9,0.7-2.9,0.7
	C28.2,77,13.3,93.1,14,112.3c0.7,18.6,16,33.4,34.7,33.4h7.2L209.2,145.8z M108.1,234c-3.8,0-7-3.1-7-7c0-1.8,0.7-3.6,2-4.9
	l17.5-17.4c2.7-2.7,7.1-2.7,9.9,0c2.7,2.7,2.7,7.1,0,9.9l0,0L113,231.9C111.7,233.3,109.9,234,108.1,234L108.1,234z M47.4,194.3
	c-3.8,0-7-3.1-7-6.9c0-1.9,0.7-3.6,2-4.9l11-11c2.7-2.7,7.1-2.7,9.9,0c2.7,2.7,2.7,7.1,0,9.9l-11,11C51,193.6,49.2,194.3,47.4,194.3
	L47.4,194.3z M144.3,194.3c-3.8,0-7-3.1-7-6.9c0-1.9,0.7-3.6,2-4.9l11-11c2.7-2.7,7.1-2.7,9.9,0c2.7,2.7,2.7,7.1,0,9.9l0,0l-11,11
	C148,193.6,146.2,194.3,144.3,194.3L144.3,194.3z M175.7,211.8c-3.8,0-7-3.1-7-7c0-1.8,0.7-3.6,2-4.9l28.6-28.5
	c2.7-2.7,7.1-2.8,9.9-0.1c2.7,2.7,2.8,7.1,0.1,9.9c0,0-0.1,0.1-0.1,0.1l-28.6,28.5C179.3,211.1,177.6,211.8,175.7,211.8L175.7,211.8
	z M70.4,219.5c-3.8,0-7-3.1-7-7c0-1.8,0.7-3.6,2-4.9l36.3-36.1c2.7-2.7,7.1-2.7,9.9,0c2.7,2.7,2.7,7.1,0,9.9l0,0l-36.3,36.1
	C74,218.8,72.3,219.5,70.4,219.5L70.4,219.5z"/>
</svg>
