<svg xmlns="http://www.w3.org/2000/svg" width="263.03" height="265" viewBox="0 0 263.03 265">
  <defs>
    <style>
      .cls-1 {
        fill: #fff;
        fill-rule: evenodd;
      }
    </style>
  </defs>
  <path id="Snow" class="cls-1" d="M3046.88,425.631l-7.32,0h0l-159.39-.06a48.314,48.314,0,0,1-10.69-95.418,32.931,32.931,0,0,1,32.43-38.815,32.754,32.754,0,0,1,16.86,4.621,73.445,73.445,0,0,1,130.99,33.077,48.352,48.352,0,0,1-2.81,96.6h-0.07Zm-7.32-13.824,7.29,0a34.534,34.534,0,0,0-.38-69.067c-0.82,0-1.69.053-2.43,0.105a6.917,6.917,0,0,1-7.39-6.451,59.573,59.573,0,0,0-110.37-26.9,6.933,6.933,0,0,1-10.83,1.29,19.094,19.094,0,0,0-30.63,22,6.909,6.909,0,0,1-5.91,10.009,34.488,34.488,0,0,0,1.26,68.951h7.11ZM2896.98,518.9a6.913,6.913,0,0,1-4.9-11.8l42.85-42.734a6.914,6.914,0,1,1,9.78,9.776l-42.84,42.735A6.9,6.9,0,0,1,2896.98,518.9Zm42.82,0.022a6.932,6.932,0,0,1-4.9-2.027l-42.8-42.778a6.914,6.914,0,1,1,9.79-9.767l42.81,42.777A6.914,6.914,0,0,1,2939.8,518.918Zm13.21-21.481H2953l-69.21.02a6.921,6.921,0,0,1,0-13.841h0l69.22,0.072A6.875,6.875,0,1,1,2953.01,497.437Zm-34.63,34.552h0a6.874,6.874,0,0,1-6.92-6.868l0.03-69.127a6.948,6.948,0,0,1,6.93-6.93h0a6.958,6.958,0,0,1,6.92,6.959l-0.04,69.082A6.9,6.9,0,0,1,2918.38,531.989Zm74.6-43.719a6.908,6.908,0,0,1-3.48-12.885l41.88-24.325a6.913,6.913,0,1,1,6.96,11.947l-41.88,24.324A6.911,6.911,0,0,1,2992.98,488.27Zm42.22-.625a6.9,6.9,0,0,1-3.29-.838l-42.59-23.075a6.915,6.915,0,1,1,6.61-12.147l42.58,23.074A6.911,6.911,0,0,1,3035.2,487.645ZM3013.91,500.2h-0.01a7.055,7.055,0,0,1-6.92-7.071l0.03-47.542a6.9,6.9,0,0,1,6.92-6.89h0a6.832,6.832,0,0,1,6.92,6.818l-0.02,47.669A7.008,7.008,0,0,1,3013.91,500.2Z" transform="translate(-2831.91 -267)"/>
</svg>
