<?xml version="1.0" encoding="utf-8"?>
<!-- Generator: Adobe Illustrator 24.0.2, SVG Export Plug-In . SVG Version: 6.00 Build 0)  -->
<svg version="1.1" id="Calque_1" xmlns="http://www.w3.org/2000/svg" xmlns:xlink="http://www.w3.org/1999/xlink" x="0px" y="0px"
	 viewBox="0 0 263 265" style="enable-background:new 0 0 263 265;" xml:space="preserve">
<style type="text/css">
	.st0{fill-rule:evenodd;clip-rule:evenodd;}
</style>
<path id="Snow" class="st0" d="M215,158.6h-7.3l0,0l-159.4-0.1C21.6,158.5,0,136.9,0,110.2c0-22.5,15.6-42,37.6-47
	c-3.2-17.9,8.6-35,26.5-38.3c2-0.4,3.9-0.5,5.9-0.5c5.9,0,11.8,1.6,16.9,4.6C111.4-3.3,157.5-9.6,189.8,15
	c15.1,11.5,25.1,28.3,28.1,47c26.6,1.7,46.8,24.8,45.1,51.4C261.3,138.7,240.4,158.5,215,158.6L215,158.6L215,158.6z M207.6,144.8
	h7.3c19.1-0.1,34.4-15.7,34.3-34.7c-0.1-19.1-15.7-34.4-34.7-34.3l0,0c-0.8,0-1.7,0.1-2.4,0.1c-3.8,0.3-7.1-2.6-7.4-6.4c0,0,0,0,0,0
	c-2.2-32.8-30.6-57.6-63.4-55.4c-19.4,1.3-36.9,12-46.9,28.5c-2,3.3-6.3,4.3-9.5,2.3c-0.5-0.3-0.9-0.6-1.3-1
	c-7.4-7.5-19.5-7.5-27-0.1c-5.9,5.8-7.3,14.7-3.6,22.1c1.7,3.4,0.3,7.6-3.1,9.3C49,75.5,48,75.8,47,75.8
	c-19,0.7-33.9,16.7-33.2,35.8c0.7,18.5,15.9,33.1,34.4,33.2h7.1L207.6,144.8z M65.1,251.9c-3.8,0-6.9-3.1-6.9-6.9
	c0-1.8,0.7-3.6,2-4.9l42.9-42.7c2.7-2.7,7.1-2.7,9.8,0s2.7,7.1,0,9.8l0,0L70,249.9C68.7,251.2,66.9,251.9,65.1,251.9z M107.9,251.9
	c-1.8,0-3.6-0.7-4.9-2l-42.8-42.8c-2.7-2.7-2.7-7.1,0-9.8c2.7-2.7,7.1-2.7,9.8,0l0,0l42.8,42.8c2.7,2.7,2.7,7.1,0,9.8
	C111.5,251.2,109.7,251.9,107.9,251.9L107.9,251.9z M121.1,230.4L121.1,230.4l-69.2,0c-3.8,0-6.9-3.2-6.8-7c0-3.8,3.1-6.8,6.8-6.8
	l0,0l69.2,0.1c3.8-0.1,7,2.9,7.1,6.7c0.1,3.8-2.9,7-6.7,7.1C121.3,230.4,121.2,230.4,121.1,230.4L121.1,230.4z M86.5,265L86.5,265
	c-3.8,0-6.9-3-6.9-6.8c0,0,0,0,0,0l0-69.1c0-3.8,3.1-6.9,6.9-6.9l0,0c3.8,0,6.9,3.1,6.9,7l0,69.1C93.4,261.9,90.3,265,86.5,265
	L86.5,265L86.5,265z M161.1,221.3c-3.8,0-6.9-3.1-6.9-6.9c0-2.5,1.3-4.8,3.4-6l41.9-24.3c3.3-1.9,7.5-0.8,9.5,2.5
	c1.9,3.3,0.8,7.5-2.5,9.5l0,0l-41.9,24.3C163.5,220.9,162.3,221.3,161.1,221.3L161.1,221.3z M203.3,220.6c-1.1,0-2.3-0.3-3.3-0.8
	l-42.6-23.1c-3.4-1.8-4.7-6-2.9-9.3c1.8-3.4,6-4.7,9.3-2.9c0,0,0.1,0.1,0.1,0.1l42.6,23.1c3.4,1.8,4.6,6,2.8,9.4
	C208.2,219.3,205.8,220.6,203.3,220.6L203.3,220.6z M182,233.2L182,233.2c-3.9-0.1-6.9-3.2-6.9-7.1l0-47.5c0-3.8,3.1-6.9,6.9-6.9
	c0,0,0,0,0,0l0,0c3.8,0,6.9,3,6.9,6.7c0,0,0,0,0,0.1l0,47.7C188.9,230,185.8,233.2,182,233.2z"/>
</svg>
