<?xml version="1.0" encoding="utf-8"?>
<!-- Generator: Adobe Illustrator 24.0.2, SVG Export Plug-In . SVG Version: 6.00 Build 0)  -->
<svg version="1.1" id="Calque_1" xmlns="http://www.w3.org/2000/svg" xmlns:xlink="http://www.w3.org/1999/xlink" x="0px" y="0px"
	 viewBox="0 0 265 265" style="enable-background:new 0 0 265 265;" xml:space="preserve">
<style type="text/css">
	.st0{fill-rule:evenodd;clip-rule:evenodd;}
</style>
<path id="Sunny" class="st0" d="M132.6,62.8c-38.5,0-69.7,31.2-69.7,69.7c0,38.5,31.2,69.7,69.7,69.7c38.5,0,69.7-31.2,69.7-69.7
	C202.3,94.1,171.1,62.9,132.6,62.8z M132.6,188.4c-30.8,0-55.8-25-55.8-55.8c0-30.8,25-55.8,55.8-55.8c30.8,0,55.8,25,55.8,55.8
	C188.3,163.4,163.4,188.3,132.6,188.4z M132.5,51.6c3.9,0,7-3.1,7-7c0,0,0,0,0,0V7c0-3.8-3.1-7-6.9-7c-3.8,0-7,3.1-7,6.9
	c0,0,0,0,0,0v37.7C125.5,48.5,128.7,51.6,132.5,51.6C132.5,51.6,132.5,51.6,132.5,51.6L132.5,51.6z M132.5,213.4c-3.9,0-7,3.1-7,7
	c0,0,0,0,0,0V258c0,3.8,3.1,7,6.9,7c3.8,0,7-3.1,7-6.9c0,0,0,0,0,0v-37.7C139.5,216.5,136.4,213.4,132.5,213.4L132.5,213.4z
	 M51.6,132.5c0-3.9-3.1-7-7-7H7c-3.9,0-7,3.1-7,7c0,3.9,3.1,7,7,7c0,0,0,0,0,0h37.6C48.5,139.5,51.6,136.4,51.6,132.5z M258,125.5
	h-37.7c-3.9,0-7,3.1-7,7c0,3.8,3.1,7,7,7H258c3.9,0,7-3.1,7-7C265,128.6,261.9,125.5,258,125.5z M194.3,77.7c1.8,0,3.6-0.7,4.9-2
	l27-27c2.7-2.7,2.7-7.1,0-9.9c-2.7-2.7-7.1-2.7-9.9,0l-27,27c-2.7,2.7-2.7,7.1,0,9.9C190.6,77,192.4,77.7,194.3,77.7L194.3,77.7z
	 M65.8,189.3l-27,27c-2.7,2.7-2.7,7.1,0,9.9c2.7,2.7,7.1,2.7,9.9,0l27-27c2.7-2.7,2.8-7.1,0.1-9.9C73.1,186.6,68.7,186.5,65.8,189.3
	C65.9,189.3,65.9,189.3,65.8,189.3z M65.8,75.7c2.7,2.8,7.1,2.8,9.9,0.1c2.8-2.7,2.8-7.1,0.1-9.9c0,0-0.1-0.1-0.1-0.1l-27-27
	c-2.7-2.7-7.1-2.7-9.9,0c-2.7,2.7-2.7,7.1,0,9.9L65.8,75.7z M199.2,189.3c-2.7-2.7-7.1-2.7-9.9,0c-2.7,2.7-2.7,7.1,0,9.9l27,27
	c2.7,2.7,7.1,2.7,9.9,0c2.7-2.7,2.7-7.1,0-9.9L199.2,189.3z"/>
</svg>
