<svg xmlns="http://www.w3.org/2000/svg" width="265" height="265" viewBox="0 0 265 265">
  <defs>
    <style>
      .cls-1 {
        fill: #fff;
        fill-rule: evenodd;
      }
    </style>
  </defs>
  <path id="Sunny" class="cls-1" d="M2963.49,329.831a69.737,69.737,0,1,0,69.74,69.737A69.821,69.821,0,0,0,2963.49,329.831Zm0,125.526a55.789,55.789,0,1,1,55.79-55.789A55.854,55.854,0,0,1,2963.49,455.357Zm-0.07-136.752a6.971,6.971,0,0,0,6.97-6.974V273.974a6.97,6.97,0,1,0-13.94,0v37.657A6.971,6.971,0,0,0,2963.42,318.605Zm0,161.79a6.971,6.971,0,0,0-6.97,6.973v37.658a6.97,6.97,0,1,0,13.94,0V487.368A6.971,6.971,0,0,0,2963.42,480.4ZM2882.53,399.5a6.98,6.98,0,0,0-6.98-6.974H2837.9a6.974,6.974,0,1,0,0,13.948h37.65A6.981,6.981,0,0,0,2882.53,399.5Zm206.42-6.974h-37.66a6.974,6.974,0,0,0,0,13.948h37.66A6.974,6.974,0,0,0,3088.95,392.526Zm-63.78-47.8a6.957,6.957,0,0,0,4.93-2.042l27.01-27.014a6.973,6.973,0,1,0-9.86-9.863l-27.01,27.014A6.974,6.974,0,0,0,3025.17,344.727ZM2896.74,456.315l-27.01,27.014a6.973,6.973,0,1,0,9.86,9.863l27.02-27.014A6.977,6.977,0,1,0,2896.74,456.315Zm0-113.63a6.977,6.977,0,1,0,9.87-9.863l-27.02-27.014a6.973,6.973,0,1,0-9.86,9.863Zm133.36,113.63a6.973,6.973,0,0,0-9.86,9.863l27.01,27.014a6.973,6.973,0,1,0,9.86-9.863Z" transform="translate(-2830.91 -267)"/>
</svg>
