<svg xmlns="http://www.w3.org/2000/svg" width="265.03" height="233.969" viewBox="0 0 265.03 233.969">
  <defs>
    <style>
      .cls-1 {
        fill: #fff;
        fill-rule: evenodd;
      }
    </style>
  </defs>
  <path id="Thundershowers" class="cls-1" d="M3047.52,442.666l-7.38,0a6.956,6.956,0,1,1,0-13.911h0l7.35,0a34.759,34.759,0,0,0-.39-69.516c-0.82,0-1.7.054-2.45,0.106a6.955,6.955,0,0,1-7.44-6.494A60.042,60.042,0,0,0,2926,325.772a6.987,6.987,0,0,1-10.91,1.3,19.235,19.235,0,0,0-30.87,22.149,6.952,6.952,0,0,1-5.95,10.074,34.712,34.712,0,0,0,1.26,69.4h7.17a6.956,6.956,0,1,1,0,13.911h-7.17a48.623,48.623,0,0,1-10.76-96.039,32.684,32.684,0,0,1-.54-5.952,33.242,33.242,0,0,1,50.2-28.464,74.025,74.025,0,0,1,131.98,33.291,48.664,48.664,0,0,1-2.82,97.226h-0.07Zm-149.63,65.376a6.957,6.957,0,0,1-4.94-11.87l29.96-29.921h-18.05a6.95,6.95,0,0,1-4.8-12L2944,412.639a6.963,6.963,0,1,1,9.6,10.087l-31.27,29.614h17.4a6.957,6.957,0,0,1,4.94,11.87L2902.82,506A6.959,6.959,0,0,1,2897.89,508.042Zm71.08-24.445a6.958,6.958,0,0,1-4.93-11.876l29.93-29.814h-18.02a6.952,6.952,0,0,1-4.82-11.987l43.94-41.816a6.964,6.964,0,1,1,9.63,10.063L2993.36,428h17.46a6.955,6.955,0,0,1,4.93,11.875l-41.85,41.69A6.949,6.949,0,0,1,2968.97,483.6Zm-35.57,33.386a6.958,6.958,0,0,1-4.93-11.876l17.47-17.4a6.965,6.965,0,0,1,9.86,9.841l-17.47,17.4A6.953,6.953,0,0,1,2933.4,516.983Zm-63.46-22.953a6.953,6.953,0,0,1-4.93-11.876l11.01-10.973a6.965,6.965,0,0,1,9.86,9.841L2874.87,492A6.983,6.983,0,0,1,2869.94,494.03Zm124.84,9.738a6.953,6.953,0,0,1-4.93-11.876l36.26-36.126a6.965,6.965,0,0,1,9.86,9.841l-36.26,36.126A6.988,6.988,0,0,1,2994.78,503.768Z" transform="translate(-2830.91 -283)"/>
</svg>
