<?xml version="1.0" encoding="utf-8"?>
<!-- Generator: Adobe Illustrator 24.0.2, SVG Export Plug-In . SVG Version: 6.00 Build 0)  -->
<svg version="1.1" id="Calque_1" xmlns="http://www.w3.org/2000/svg" xmlns:xlink="http://www.w3.org/1999/xlink" x="0px" y="0px"
	 viewBox="0 0 265 234" style="enable-background:new 0 0 265 234;" xml:space="preserve">
<style type="text/css">
	.st0{fill-rule:evenodd;clip-rule:evenodd;}
</style>
<path id="Thundershowers" class="st0" d="M216.6,159.7h-7.4c-3.8,0-7-3-7-6.9c0-3.8,3-7,6.9-7c0.1,0,0.1,0,0.2,0l0,0h7.4
	c19.2-0.2,34.6-15.9,34.4-35.1c-0.2-19.1-15.7-34.4-34.8-34.4c-0.8,0-1.7,0.1-2.4,0.1c-3.8,0.3-7.2-2.6-7.4-6.4c0,0,0,0,0-0.1
	c-2.3-33.1-30.9-58.1-64-55.8c-19.5,1.3-37.1,12-47.2,28.7c-2,3.3-6.3,4.3-9.6,2.3c-0.5-0.3-0.9-0.6-1.3-1
	c-7.5-7.6-19.6-7.6-27.2-0.2c-5.9,5.9-7.4,14.9-3.7,22.3c1.7,3.4,0.3,7.6-3.1,9.3c-0.9,0.4-1.9,0.7-2.9,0.7
	C28.2,77,13.3,93.1,14,112.3c0.7,18.6,16,33.4,34.7,33.4h7.2c3.8,0,7,3,7,6.9c0,3.8-3,7-6.9,7c-0.1,0-0.1,0-0.2,0h-7.2
	C21.8,159.6,0,137.8,0,111c0-22.7,15.7-42.4,37.9-47.4c-0.4-2-0.5-4-0.5-6c0.1-18.4,15-33.2,33.4-33.1c5.9,0,11.7,1.6,16.8,4.7
	c24.8-32.5,71.2-38.8,103.7-14c15.1,11.5,25.3,28.5,28.2,47.3c26.8,1.7,47.2,24.9,45.4,51.7C263.3,139.6,242.2,159.5,216.6,159.7
	L216.6,159.7L216.6,159.7z M67,225c-3.8,0-7-3.1-7-6.9c0-1.8,0.7-3.6,2-4.9l30-29.9H74c-3.8,0-7-3.1-7-6.9c0-1.9,0.8-3.8,2.2-5.1
	l43.9-41.6c2.8-2.7,7.2-2.6,9.8,0.1c2.7,2.8,2.6,7.2-0.1,9.8c0,0-0.1,0.1-0.1,0.1l-31.3,29.6h17.4c3.8,0,7,3.1,7,6.9
	c0,1.8-0.7,3.6-2,4.9L71.9,223C70.6,224.3,68.8,225,67,225L67,225z M138.1,200.6c-3.8,0-7-3.1-7-7c0-1.8,0.7-3.6,2-4.9l29.9-29.8
	h-18c-3.8,0-7-3.1-7-6.9c0-1.9,0.8-3.7,2.2-5.1l43.9-41.8c2.8-2.7,7.2-2.6,9.8,0.2s2.6,7.2-0.2,9.8L162.5,145h17.5
	c3.8,0,7,3.1,7,6.9c0,1.9-0.7,3.6-2,4.9L143,198.6C141.7,199.9,139.9,200.6,138.1,200.6L138.1,200.6z M102.5,234c-3.8,0-7-3.1-7-7
	c0-1.8,0.7-3.6,2-4.9l17.5-17.4c2.7-2.7,7.1-2.7,9.9,0c2.7,2.7,2.7,7.1,0,9.9l0,0l-17.5,17.4C106.1,233.3,104.3,234,102.5,234
	L102.5,234z M39,211c-3.8,0-7-3.1-7-6.9c0-1.9,0.7-3.6,2-4.9l11-11c2.7-2.7,7.1-2.7,9.9,0c2.7,2.7,2.7,7.1,0,9.9l-11,11
	C42.6,210.3,40.9,211,39,211L39,211z M163.9,220.8c-3.8,0-7-3.1-7-6.9c0-1.9,0.7-3.6,2-4.9l36.3-36.1c2.7-2.7,7.1-2.7,9.9,0
	c2.7,2.7,2.7,7.1,0,9.9l-36.3,36.1C167.5,220,165.7,220.8,163.9,220.8L163.9,220.8z"/>
</svg>
