<svg xmlns="http://www.w3.org/2000/svg" width="265.03" height="185.969" viewBox="0 0 265.03 185.969">
  <defs>
    <style>
      .cls-1 {
        fill: #fff;
        fill-rule: evenodd;
      }
    </style>
  </defs>
  <path id="Windy" class="cls-1" d="M3049.79,408.758H2858.37c-14.88,0-27.45-12.763-27.45-27.869a27.393,27.393,0,1,1,54.78-.183,7.56,7.56,0,0,1-15.12,0,12.606,12.606,0,0,0-12.26-12.617c-6.65,0-12.27,5.861-12.27,12.8s5.64,12.8,12.32,12.8h191.42A7.535,7.535,0,1,1,3049.79,408.758Zm38.57-32.4H2933.41a34.674,34.674,0,1,1,34.08-34.809,7.565,7.565,0,0,1-15.13,0,19.149,19.149,0,1,0-38.29.139c0,10.625,8.86,19.6,19.34,19.6h154.95A7.534,7.534,0,1,1,3088.36,376.36ZM2882.91,493.008a34.5,34.5,0,0,1-24.25-9.772,33.385,33.385,0,0,1-10.1-24.065c0-18.658,15.44-33.838,34.42-33.838h188.74a7.534,7.534,0,1,1,0,15.068H2882.98c-10.82,0-19.29,8.245-19.29,18.77s8.44,18.768,19.22,18.768a18.846,18.846,0,0,0,19.18-18.907,7.565,7.565,0,0,1,15.13,0A34.182,34.182,0,0,1,2882.91,493.008Z" transform="translate(-2830.91 -307.031)"/>
</svg>
