<?xml version="1.0" encoding="utf-8"?>
<!-- Generator: Adobe Illustrator 24.0.2, SVG Export Plug-In . SVG Version: 6.00 Build 0)  -->
<svg version="1.1" id="Calque_1" xmlns="http://www.w3.org/2000/svg" xmlns:xlink="http://www.w3.org/1999/xlink" x="0px" y="0px"
	 viewBox="0 0 265 186" style="enable-background:new 0 0 265 186;" xml:space="preserve">
<style type="text/css">
	.st0{fill-rule:evenodd;clip-rule:evenodd;}
</style>
<path id="Windy" class="st0" d="M218.9,101.7H27.5C12.6,101.7,0,89,0,73.9C-0.3,58.7,11.8,46.3,26.9,46C42,45.7,54.5,57.8,54.8,72.9
	c0,0.3,0,0.5,0,0.8c0,4.2-3.4,7.6-7.6,7.6s-7.6-3.4-7.6-7.6c0-6.8-5.4-12.4-12.3-12.6c-6.6,0-12.3,5.9-12.3,12.8s5.6,12.8,12.3,12.8
	h191.4c4.2,0,7.6,3.3,7.6,7.4c0,4.2-3.3,7.6-7.4,7.6C219,101.7,218.9,101.7,218.9,101.7z M257.5,69.3h-155
	c-19.1,0.3-34.9-14.9-35.3-34.1C66.9,16.1,82.2,0.3,101.3,0c19.1-0.3,34.9,14.9,35.3,34.1c0,0.2,0,0.3,0,0.5c0,4.2-3.4,7.6-7.6,7.5
	c-4.2,0-7.5-3.4-7.5-7.5c0.2-10.6-8.3-19.3-18.8-19.5s-19.3,8.3-19.5,18.8c0,0.3,0,0.5,0,0.8c0,10.6,8.9,19.6,19.3,19.6h154.9
	c4.2,0,7.5,3.4,7.5,7.5S261.6,69.3,257.5,69.3L257.5,69.3z M52,186c-9.1,0.1-17.8-3.5-24.3-9.8c-6.5-6.3-10.1-15-10.1-24.1
	c0-18.7,15.4-33.8,34.4-33.8h188.7c4.2,0,7.5,3.4,7.5,7.5s-3.4,7.5-7.5,7.5c0,0,0,0,0,0H52.1c-10.8,0-19.3,8.2-19.3,18.8
	s8.4,18.8,19.2,18.8c10.4,0.2,19-8.1,19.2-18.5c0-0.1,0-0.3,0-0.4c0-4.2,3.4-7.6,7.6-7.5c4.2,0,7.5,3.4,7.5,7.5
	C86.2,170.8,70.8,186,52,186z"/>
</svg>
