<svg xmlns="http://www.w3.org/2000/svg" width="57.424" height="38.299" viewBox="0 0 57.424 38.299">
  <path id="Icon_ionic-ios-arrow-round-forward" data-name="Icon ionic-ios-arrow-round-forward" d="M44.5,11.985a2.606,2.606,0,0,0-.02,3.67L56.6,27.8H10.448a2.593,2.593,0,0,0,0,5.186H56.583L44.456,45.135a2.625,2.625,0,0,0,.02,3.67,2.582,2.582,0,0,0,3.65-.02L64.561,32.23h0a2.912,2.912,0,0,0,.539-.818,2.475,2.475,0,0,0,.2-1,2.6,2.6,0,0,0-.738-1.815L48.126,12.045A2.541,2.541,0,0,0,44.5,11.985Z" transform="translate(-7.875 -11.252)" fill="#fff"/>
</svg>
